<svg width="19" height="12" viewBox="0 0 19 12" fill="none" xmlns="http://www.w3.org/2000/svg">
<path d="M4.76562 9.64844L8.11719 0H9.75L5.53906 11.375H4.375L4.76562 9.64844ZM1.63281 0L4.95312 9.64844L5.36719 11.375H4.20312L0 0H1.63281ZM16.5547 8.05469V0H18.0547V8.05469C18.0547 8.80469 17.901 9.4375 17.5938 9.95312C17.2865 10.4688 16.862 10.862 16.3203 11.1328C15.7839 11.3984 15.1667 11.5312 14.4688 11.5312C13.7708 11.5312 13.151 11.4115 12.6094 11.1719C12.0677 10.9323 11.6432 10.5677 11.3359 10.0781C11.0286 9.58854 10.875 8.97135 10.875 8.22656H12.3828C12.3828 8.70573 12.4714 9.09896 12.6484 9.40625C12.8255 9.71354 13.0703 9.9401 13.3828 10.0859C13.7005 10.2318 14.0625 10.3047 14.4688 10.3047C14.8646 10.3047 15.2188 10.2214 15.5312 10.0547C15.849 9.88281 16.099 9.63021 16.2812 9.29688C16.4635 8.95833 16.5547 8.54427 16.5547 8.05469Z" fill="white"/>
</svg>
